{
copyright = "Copyright \U00A9 2013 by Shinji Pons. All rights reserved.";
date = "2013-05-07 17:01:52 +0000";
designer = "Shinji Pons";
designerURL = www.shinjipons.com;
familyName = "Modulo 42";
fontMaster = (
{
alignmentZones = (
"{1280, 10}",
"{0, -10}"
);
ascender = 1280;
capHeight = 1280;
customParameters = (
{
name = familyName;
value = "Modulo 42";
}
);
descender = 0;
guideLines = (
{
position = "{1530, 430}";
},
{
angle = 90;
position = "{940, -80}";
},
{
angle = 90;
position = "{500, -70}";
},
{
position = "{1540, 420}";
},
{
angle = 90;
position = "{80, -100}";
},
{
angle = 90;
position = "{930, -70}";
},
{
position = "{1530, 850}";
},
{
position = "{1530, 860}";
},
{
angle = 90;
position = "{1360, -100}";
},
{
angle = 90;
position = "{510, -70}";
}
);
horizontalStems = (
420
);
id = "940E2F63-624A-4C3D-A909-721782B4CF41";
userData = {
GSOffsetHorizontal = "-200";
GSOffsetProportional = 1;
GSOffsetVertical = 10;
};
verticalStems = (
420
);
weightValue = 42;
widthValue = 128;
xHeight = 1280;
}
);
glyphs = (
{
glyphname = A;
lastChange = "2014-01-05 01:20:51 +0000";
layers = (
{
guideLines = (
{
position = "{519, 908}";
showMeasurement = 1;
},
{
angle = 90;
position = "{730, -163}";
showMeasurement = 1;
}
);
layerId = "940E2F63-624A-4C3D-A909-721782B4CF41";
name = Regular;
paths = (
{
closed = 1;
nodes = (
"280 1080 LINE",
"280 1060 LINE",
"1140 1060 LINE",
"1140 220 LINE",
"300 220 LINE",
"300 630 LINE",
"730 630 LINE",
"730 650 LINE",
"280 650 LINE",
"280 200 LINE",
"1160 200 LINE",
"1160 1080 LINE"
);
}
);
width = 1440;
}
);
unicode = 0041;
},
{
glyphname = B;
lastChange = "2014-01-05 01:20:51 +0000";
layers = (
{
layerId = "940E2F63-624A-4C3D-A909-721782B4CF41";
name = Regular;
paths = (
{
closed = 1;
nodes = (
"280 1080 LINE",
"280 200 LINE",
"300 200 LINE",
"300 1060 LINE",
"1140 1060 LINE",
"1140 650 LINE",
"710 650 LINE",
"710 630 LINE",
"1140 630 LINE",
"1140 220 LINE",
"710 220 LINE",
"710 200 LINE",
"1160 200 LINE",
"1160 1080 LINE"
);
}
);
width = 1440;
}
);
unicode = 0042;
},
{
glyphname = C;
lastChange = "2014-01-05 01:20:51 +0000";
layers = (
{
layerId = "940E2F63-624A-4C3D-A909-721782B4CF41";
name = Regular;
paths = (
{
closed = 1;
nodes = (
"280 1080 LINE",
"280 200 LINE",
"1160 200 LINE",
"1160 220 LINE",
"300 220 LINE",
"300 1060 LINE",
"1160 1060 LINE",
"1160 1080 LINE"
);
}
);
width = 1440;
}
);
unicode = 0043;
},
{
glyphname = D;
lastChange = "2014-01-05 01:20:51 +0000";
layers = (
{
layerId = "940E2F63-624A-4C3D-A909-721782B4CF41";
name = Regular;
paths = (
{
closed = 1;
nodes = (
"280 1080 LINE",
"280 1060 LINE",
"1140 1060 LINE",
"1140 220 LINE",
"300 220 LINE",
"300 650 LINE",
"280 650 LINE",
"280 200 LINE",
"1160 200 LINE",
"1160 1080 LINE"
);
}
);
width = 1440;
}
);
unicode = 0044;
},
{
glyphname = E;
lastChange = "2014-01-05 01:20:51 +0000";
layers = (
{
layerId = "940E2F63-624A-4C3D-A909-721782B4CF41";
name = Regular;
paths = (
{
closed = 1;
nodes = (
"710 1080 LINE",
"710 1060 LINE",
"1140 1060 LINE",
"1140 650 LINE",
"300 650 LINE",
"300 1080 LINE",
"280 1080 LINE",
"280 200 LINE",
"1160 200 LINE",
"1160 220 LINE",
"300 220 LINE",
"300 630 LINE",
"1160 630 LINE",
"1160 1080 LINE"
);
}
);
width = 1440;
}
);
unicode = 0045;
},
{
glyphname = F;
lastChange = "2014-01-05 01:20:51 +0000";
layers = (
{
layerId = "940E2F63-624A-4C3D-A909-721782B4CF41";
name = Regular;
paths = (
{
closed = 1;
nodes = (
"280 1080 LINE",
"280 200 LINE",
"300 200 LINE",
"300 630 LINE",
"1160 630 LINE",
"1160 650 LINE",
"300 650 LINE",
"300 1060 LINE",
"1160 1060 LINE",
"1160 1080 LINE"
);
}
);
width = 1440;
}
);
unicode = 0046;
},
{
glyphname = H;
lastChange = "2014-01-05 01:20:51 +0000";
layers = (
{
layerId = "940E2F63-624A-4C3D-A909-721782B4CF41";
name = Regular;
paths = (
{
closed = 1;
nodes = (
"1140 1080 LINE",
"1140 650 LINE",
"300 650 LINE",
"300 1080 LINE",
"280 1080 LINE",
"280 200 LINE",
"300 200 LINE",
"300 630 LINE",
"1140 630 LINE",
"1140 200 LINE",
"1160 200 LINE",
"1160 1080 LINE"
);
}
);
width = 1440;
}
);
unicode = 0048;
},
{
glyphname = J;
lastChange = "2014-01-05 01:20:51 +0000";
layers = (
{
layerId = "940E2F63-624A-4C3D-A909-721782B4CF41";
name = Regular;
paths = (
{
closed = 1;
nodes = (
"710 1080 LINE",
"710 1060 LINE",
"1140 1060 LINE",
"1140 220 LINE",
"280 220 LINE",
"280 200 LINE",
"1160 200 LINE",
"1160 1080 LINE"
);
}
);
width = 1440;
}
);
unicode = 004A;
},
{
glyphname = K;
lastChange = "2014-01-05 01:20:51 +0000";
layers = (
{
layerId = "940E2F63-624A-4C3D-A909-721782B4CF41";
name = Regular;
paths = (
{
closed = 1;
nodes = (
"710 1080 LINE",
"710 650 LINE",
"300 650 LINE",
"300 1080 LINE",
"280 1080 LINE",
"280 200 LINE",
"300 200 LINE",
"300 630 LINE",
"1140 630 LINE",
"1140 200 LINE",
"1160 200 LINE",
"1160 650 LINE",
"730 650 LINE",
"730 1060 LINE",
"1160 1060 LINE",
"1160 1080 LINE"
);
}
);
width = 1440;
}
);
unicode = 004B;
},
{
glyphname = L;
lastChange = "2014-01-05 01:20:51 +0000";
layers = (
{
layerId = "940E2F63-624A-4C3D-A909-721782B4CF41";
name = Regular;
paths = (
{
closed = 1;
nodes = (
"280 1080 LINE",
"280 200 LINE",
"1160 200 LINE",
"1160 220 LINE",
"300 220 LINE",
"300 1080 LINE"
);
}
);
width = 1440;
}
);
unicode = 004C;
},
{
glyphname = M;
lastChange = "2014-01-05 01:20:51 +0000";
layers = (
{
layerId = "940E2F63-624A-4C3D-A909-721782B4CF41";
name = Regular;
paths = (
{
closed = 1;
nodes = (
"280 1080 LINE",
"280 200 LINE",
"300 200 LINE",
"300 1060 LINE",
"710 1060 LINE",
"710 200 LINE",
"730 200 LINE",
"730 1060 LINE",
"1140 1060 LINE",
"1140 200 LINE",
"1160 200 LINE",
"1160 1080 LINE"
);
}
);
width = 1440;
}
);
unicode = 004D;
},
{
glyphname = N;
lastChange = "2014-01-05 01:20:51 +0000";
layers = (
{
layerId = "940E2F63-624A-4C3D-A909-721782B4CF41";
name = Regular;
paths = (
{
closed = 1;
nodes = (
"1140 1080 LINE",
"1140 220 LINE",
"730 220 LINE",
"730 1080 LINE",
"280 1080 LINE",
"280 200 LINE",
"300 200 LINE",
"300 1060 LINE",
"710 1060 LINE",
"710 200 LINE",
"1160 200 LINE",
"1160 1080 LINE"
);
}
);
width = 1440;
}
);
unicode = 004E;
},
{
glyphname = O;
lastChange = "2014-01-05 01:20:51 +0000";
layers = (
{
layerId = "940E2F63-624A-4C3D-A909-721782B4CF41";
name = Regular;
paths = (
{
closed = 1;
nodes = (
"280 1080 LINE",
"280 200 LINE",
"1160 200 LINE",
"1160 1080 LINE"
);
},
{
closed = 1;
nodes = (
"1140 220 LINE",
"300 220 LINE",
"300 1060 LINE",
"1140 1060 LINE"
);
}
);
width = 1440;
}
);
unicode = 004F;
},
{
glyphname = P;
lastChange = "2014-01-05 01:20:51 +0000";
layers = (
{
layerId = "940E2F63-624A-4C3D-A909-721782B4CF41";
name = Regular;
paths = (
{
closed = 1;
nodes = (
"280 1080 LINE",
"280 200 LINE",
"300 200 LINE",
"300 1060 LINE",
"1140 1060 LINE",
"1140 650 LINE",
"710 650 LINE",
"710 630 LINE",
"1160 630 LINE",
"1160 1080 LINE"
);
}
);
width = 1440;
}
);
unicode = 0050;
},
{
glyphname = Q;
lastChange = "2014-01-05 01:20:51 +0000";
layers = (
{
layerId = "940E2F63-624A-4C3D-A909-721782B4CF41";
name = Regular;
paths = (
{
closed = 1;
nodes = (
"280 1080 LINE",
"280 200 LINE",
"1160 200 LINE",
"1160 1080 LINE"
);
},
{
closed = 1;
nodes = (
"1140 220 LINE",
"730 220 LINE",
"730 650 LINE",
"710 650 LINE",
"710 220 LINE",
"300 220 LINE",
"300 1060 LINE",
"1140 1060 LINE"
);
}
);
width = 1440;
}
);
unicode = 0051;
},
{
glyphname = R;
lastChange = "2014-01-05 01:20:51 +0000";
layers = (
{
layerId = "940E2F63-624A-4C3D-A909-721782B4CF41";
name = Regular;
paths = (
{
closed = 1;
nodes = (
"280 1080 LINE",
"280 200 LINE",
"300 200 LINE",
"300 1060 LINE",
"1140 1060 LINE",
"1140 650 LINE",
"710 650 LINE",
"710 200 LINE",
"1160 200 LINE",
"1160 220 LINE",
"730 220 LINE",
"730 630 LINE",
"1160 630 LINE",
"1160 1080 LINE"
);
}
);
width = 1440;
}
);
unicode = 0052;
},
{
glyphname = T;
lastChange = "2014-01-05 01:20:51 +0000";
layers = (
{
layerId = "940E2F63-624A-4C3D-A909-721782B4CF41";
name = Regular;
paths = (
{
closed = 1;
nodes = (
"280 1080 LINE",
"280 1060 LINE",
"710 1060 LINE",
"710 200 LINE",
"730 200 LINE",
"730 1060 LINE",
"1160 1060 LINE",
"1160 1080 LINE"
);
}
);
width = 1440;
}
);
unicode = 0054;
},
{
glyphname = V;
lastChange = "2014-01-05 01:20:51 +0000";
layers = (
{
layerId = "940E2F63-624A-4C3D-A909-721782B4CF41";
name = Regular;
paths = (
{
closed = 1;
nodes = (
"1140 1080 LINE",
"1140 650 LINE",
"710 650 LINE",
"710 220 LINE",
"300 220 LINE",
"300 1080 LINE",
"280 1080 LINE",
"280 200 LINE",
"730 200 LINE",
"730 630 LINE",
"1160 630 LINE",
"1160 1080 LINE"
);
}
);
width = 1440;
}
);
unicode = 0056;
},
{
glyphname = X;
lastChange = "2014-01-05 01:20:51 +0000";
layers = (
{
layerId = "940E2F63-624A-4C3D-A909-721782B4CF41";
name = Regular;
paths = (
{
closed = 1;
nodes = (
"280 1080 LINE",
"280 630 LINE",
"300 630 LINE",
"300 1060 LINE",
"710 1060 LINE",
"710 220 LINE",
"280 220 LINE",
"280 200 LINE",
"1160 200 LINE",
"1160 650 LINE",
"1140 650 LINE",
"1140 220 LINE",
"730 220 LINE",
"730 1060 LINE",
"1160 1060 LINE",
"1160 1080 LINE"
);
}
);
width = 1440;
}
);
unicode = 0058;
},
{
glyphname = Y;
lastChange = "2014-01-05 01:20:51 +0000";
layers = (
{
layerId = "940E2F63-624A-4C3D-A909-721782B4CF41";
name = Regular;
paths = (
{
closed = 1;
nodes = (
"1140 1080 LINE",
"1140 650 LINE",
"300 650 LINE",
"300 1080 LINE",
"280 1080 LINE",
"280 630 LINE",
"1140 630 LINE",
"1140 220 LINE",
"280 220 LINE",
"280 200 LINE",
"1160 200 LINE",
"1160 1080 LINE"
);
}
);
width = 1440;
}
);
unicode = 0059;
},
{
glyphname = zero;
lastChange = "2014-01-05 01:20:51 +0000";
layers = (
{
components = (
{
name = O;
transform = "{1, 0, 0, 1, 0, 0}";
}
);
layerId = "940E2F63-624A-4C3D-A909-721782B4CF41";
name = Regular;
paths = (
{
closed = 1;
nodes = (
"710 650 LINE",
"710 630 LINE",
"730 630 LINE",
"730 650 LINE"
);
}
);
width = 1440;
}
);
unicode = 0030;
},
{
glyphname = one;
lastChange = "2014-01-05 01:20:51 +0000";
layers = (
{
layerId = "940E2F63-624A-4C3D-A909-721782B4CF41";
name = Regular;
paths = (
{
closed = 1;
nodes = (
"280 1080 LINE",
"280 1060 LINE",
"710 1060 LINE",
"710 220 LINE",
"280 220 LINE",
"280 200 LINE",
"1160 200 LINE",
"1160 220 LINE",
"730 220 LINE",
"730 1080 LINE"
);
}
);
width = 1440;
}
);
unicode = 0031;
},
{
glyphname = seven;
lastChange = "2014-01-05 01:20:51 +0000";
layers = (
{
layerId = "940E2F63-624A-4C3D-A909-721782B4CF41";
name = Regular;
paths = (
{
closed = 1;
nodes = (
"280 1080 LINE",
"280 1060 LINE",
"1140 1060 LINE",
"1140 650 LINE",
"710 650 LINE",
"710 200 LINE",
"730 200 LINE",
"730 630 LINE",
"1160 630 LINE",
"1160 1080 LINE"
);
}
);
width = 1440;
}
);
unicode = 0037;
},
{
glyphname = eight;
lastChange = "2014-01-05 01:20:51 +0000";
layers = (
{
layerId = "940E2F63-624A-4C3D-A909-721782B4CF41";
name = Regular;
paths = (
{
closed = 1;
nodes = (
"280 1080 LINE",
"280 200 LINE",
"1160 200 LINE",
"1160 1080 LINE"
);
},
{
closed = 1;
nodes = (
"1140 220 LINE",
"300 220 LINE",
"300 630 LINE",
"1140 630 LINE"
);
},
{
closed = 1;
nodes = (
"1140 650 LINE",
"300 650 LINE",
"300 1060 LINE",
"1140 1060 LINE"
);
}
);
width = 1440;
}
);
unicode = 0038;
},
{
glyphname = asterisk;
lastChange = "2014-01-05 01:20:51 +0000";
layers = (
{
components = (
{
name = plus;
transform = "{1, 0, 0, 1, 0, 0}";
}
);
layerId = "940E2F63-624A-4C3D-A909-721782B4CF41";
name = Regular;
paths = (
{
closed = 1;
nodes = (
"1140 1080 LINE",
"1140 1060 LINE",
"1160 1060 LINE",
"1160 1080 LINE"
);
},
{
closed = 1;
nodes = (
"280 220 LINE",
"280 200 LINE",
"300 200 LINE",
"300 220 LINE"
);
},
{
closed = 1;
nodes = (
"280 1080 LINE",
"280 1060 LINE",
"300 1060 LINE",
"300 1080 LINE"
);
},
{
closed = 1;
nodes = (
"1140 220 LINE",
"1140 200 LINE",
"1160 200 LINE",
"1160 220 LINE"
);
}
);
width = 1440;
}
);
unicode = 002A;
},
{
glyphname = backslash;
lastChange = "2014-01-05 01:20:51 +0000";
layers = (
{
layerId = "940E2F63-624A-4C3D-A909-721782B4CF41";
name = Regular;
paths = (
{
closed = 1;
nodes = (
"1140 1080 LINE",
"1140 200 LINE",
"1160 200 LINE",
"1160 1080 LINE"
);
},
{
closed = 1;
nodes = (
"280 1080 LINE",
"280 200 LINE",
"300 200 LINE",
"300 1080 LINE"
);
},
{
closed = 1;
nodes = (
"710 1080 LINE",
"710 200 LINE",
"730 200 LINE",
"730 1080 LINE"
);
}
);
width = 1440;
}
);
unicode = 005C;
},
{
glyphname = comma;
lastChange = "2014-01-05 01:20:51 +0000";
layers = (
{
guideLines = (
{
angle = 90;
position = "{616, 495}";
showMeasurement = 1;
},
{
position = "{822, 607}";
showMeasurement = 1;
}
);
layerId = "940E2F63-624A-4C3D-A909-721782B4CF41";
name = Regular;
paths = (
{
closed = 1;
nodes = (
"280 1080 LINE",
"280 200 LINE",
"1160 200 LINE",
"1160 1080 LINE"
);
},
{
closed = 1;
nodes = (
"1140 220 LINE",
"300 220 LINE",
"300 1060 LINE",
"1140 1060 LINE"
);
}
);
width = 1440;
}
);
unicode = 002C;
},
{
glyphname = ellipsis;
lastChange = "2014-01-05 01:20:51 +0000";
layers = (
{
layerId = "940E2F63-624A-4C3D-A909-721782B4CF41";
name = Regular;
paths = (
{
closed = 1;
nodes = (
"280 1080 LINE",
"280 1060 LINE",
"1160 1060 LINE",
"1160 1080 LINE"
);
},
{
closed = 1;
nodes = (
"280 220 LINE",
"280 200 LINE",
"300 200 LINE",
"300 220 LINE"
);
},
{
closed = 1;
nodes = (
"710 220 LINE",
"710 200 LINE",
"730 200 LINE",
"730 220 LINE"
);
},
{
closed = 1;
nodes = (
"280 650 LINE",
"280 630 LINE",
"1160 630 LINE",
"1160 650 LINE"
);
},
{
closed = 1;
nodes = (
"1140 220 LINE",
"1140 200 LINE",
"1160 200 LINE",
"1160 220 LINE"
);
}
);
width = 1440;
}
);
unicode = 2026;
},
{
glyphname = exclam;
lastChange = "2014-01-05 01:20:51 +0000";
layers = (
{
layerId = "940E2F63-624A-4C3D-A909-721782B4CF41";
name = Regular;
paths = (
{
closed = 1;
nodes = (
"1140 1080 LINE",
"1140 630 LINE",
"1160 630 LINE",
"1160 1080 LINE"
);
},
{
closed = 1;
nodes = (
"280 220 LINE",
"280 200 LINE",
"300 200 LINE",
"300 220 LINE"
);
},
{
closed = 1;
nodes = (
"710 220 LINE",
"710 200 LINE",
"730 200 LINE",
"730 220 LINE"
);
},
{
closed = 1;
nodes = (
"280 1080 LINE",
"280 630 LINE",
"300 630 LINE",
"300 1080 LINE"
);
},
{
closed = 1;
nodes = (
"1140 220 LINE",
"1140 200 LINE",
"1160 200 LINE",
"1160 220 LINE"
);
},
{
closed = 1;
nodes = (
"710 1080 LINE",
"710 630 LINE",
"730 630 LINE",
"730 1080 LINE"
);
}
);
width = 1440;
}
);
unicode = 0021;
},
{
glyphname = numbersign;
lastChange = "2014-01-05 01:20:51 +0000";
layers = (
{
layerId = "940E2F63-624A-4C3D-A909-721782B4CF41";
name = Regular;
paths = (
{
closed = 1;
nodes = (
"280 1080 LINE",
"280 200 LINE",
"1160 200 LINE",
"1160 1080 LINE"
);
},
{
closed = 1;
nodes = (
"710 220 LINE",
"300 220 LINE",
"300 630 LINE",
"710 630 LINE"
);
},
{
closed = 1;
nodes = (
"1140 220 LINE",
"730 220 LINE",
"730 630 LINE",
"1140 630 LINE"
);
},
{
closed = 1;
nodes = (
"710 650 LINE",
"300 650 LINE",
"300 1060 LINE",
"710 1060 LINE"
);
},
{
closed = 1;
nodes = (
"1140 650 LINE",
"730 650 LINE",
"730 1060 LINE",
"1140 1060 LINE"
);
}
);
width = 1440;
}
);
unicode = 0023;
},
{
glyphname = question;
lastChange = "2014-01-05 01:20:51 +0000";
layers = (
{
layerId = "940E2F63-624A-4C3D-A909-721782B4CF41";
name = Regular;
paths = (
{
closed = 1;
nodes = (
"280 1080 LINE",
"280 1060 LINE",
"1140 1060 LINE",
"1140 650 LINE",
"710 650 LINE",
"710 630 LINE",
"1160 630 LINE",
"1160 1080 LINE"
);
},
{
closed = 1;
nodes = (
"710 220 LINE",
"710 200 LINE",
"730 200 LINE",
"730 220 LINE"
);
}
);
width = 1440;
}
);
unicode = 003F;
},
{
glyphname = braceleft;
lastChange = "2014-01-05 01:20:51 +0000";
layers = (
{
layerId = "940E2F63-624A-4C3D-A909-721782B4CF41";
name = Regular;
paths = (
{
closed = 1;
nodes = (
"710 1080 LINE",
"710 650 LINE",
"280 650 LINE",
"280 630 LINE",
"710 630 LINE",
"710 200 LINE",
"1160 200 LINE",
"1160 220 LINE",
"730 220 LINE",
"730 1060 LINE",
"1160 1060 LINE",
"1160 1080 LINE"
);
}
);
width = 1440;
}
);
unicode = 007B;
},
{
color = 0;
glyphname = dollar;
lastChange = "2014-01-05 01:20:51 +0000";
layers = (
{
components = (
{
name = S;
transform = "{1, 0, 0, 1, 0, 0}";
}
);
layerId = "940E2F63-624A-4C3D-A909-721782B4CF41";
name = Regular;
paths = (
{
closed = 1;
nodes = (
"710 1068 LINE",
"710 213 LINE",
"730 213 LINE",
"730 1068 LINE"
);
}
);
width = 1440;
}
);
unicode = 0024;
},
{
color = 0;
glyphname = euro;
lastChange = "2014-01-05 01:20:51 +0000";
layers = (
{
components = (
{
name = braceleft;
transform = "{1, 0, 0, 1, 0, 0}";
}
);
layerId = "940E2F63-624A-4C3D-A909-721782B4CF41";
name = Regular;
paths = (
{
closed = 1;
nodes = (
"667 650 LINE",
"667 630 LINE",
"1160 630 LINE",
"1160 650 LINE"
);
}
);
width = 1440;
}
);
unicode = 20AC;
},
{
glyphname = divide;
lastChange = "2014-01-05 01:20:51 +0000";
layers = (
{
layerId = "940E2F63-624A-4C3D-A909-721782B4CF41";
name = Regular;
paths = (
{
closed = 1;
nodes = (
"280 650 LINE",
"280 630 LINE",
"1160 630 LINE",
"1160 650 LINE"
);
},
{
closed = 1;
nodes = (
"710 220 LINE",
"710 200 LINE",
"730 200 LINE",
"730 220 LINE"
);
},
{
closed = 1;
nodes = (
"710 1080 LINE",
"710 1060 LINE",
"730 1060 LINE",
"730 1080 LINE"
);
}
);
width = 1440;
}
);
unicode = 00F7;
},
{
color = 0;
glyphname = percent;
lastChange = "2014-01-05 01:20:51 +0000";
layers = (
{
layerId = "940E2F63-624A-4C3D-A909-721782B4CF41";
name = Regular;
paths = (
{
closed = 1;
nodes = (
"1140 1080 LINE",
"1140 650 LINE",
"280 650 LINE",
"280 200 LINE",
"300 200 LINE",
"300 630 LINE",
"1160 630 LINE",
"1160 1080 LINE"
);
},
{
closed = 1;
nodes = (
"710 220 LINE",
"710 200 LINE",
"1160 200 LINE",
"1160 220 LINE"
);
},
{
closed = 1;
nodes = (
"280 1080 LINE",
"280 1060 LINE",
"730 1060 LINE",
"730 1080 LINE"
);
}
);
width = 1440;
}
);
unicode = 0025;
},
{
glyphname = plus;
lastChange = "2014-01-05 01:20:51 +0000";
layers = (
{
layerId = "940E2F63-624A-4C3D-A909-721782B4CF41";
name = Regular;
paths = (
{
closed = 1;
nodes = (
"710 1080 LINE",
"710 650 LINE",
"280 650 LINE",
"280 630 LINE",
"710 630 LINE",
"710 200 LINE",
"730 200 LINE",
"730 630 LINE",
"1160 630 LINE",
"1160 650 LINE",
"730 650 LINE",
"730 1080 LINE"
);
}
);
width = 1440;
}
);
unicode = 002B;
},
{
glyphname = ampersand;
lastChange = "2014-01-05 01:20:51 +0000";
layers = (
{
layerId = "940E2F63-624A-4C3D-A909-721782B4CF41";
name = Regular;
paths = (
{
closed = 1;
nodes = (
"710 1080 LINE",
"710 650 LINE",
"280 650 LINE",
"280 200 LINE",
"1160 200 LINE",
"1160 220 LINE",
"300 220 LINE",
"300 630 LINE",
"1160 630 LINE",
"1160 1080 LINE"
);
},
{
closed = 1;
nodes = (
"1140 650 LINE",
"730 650 LINE",
"730 1060 LINE",
"1140 1060 LINE"
);
}
);
width = 1440;
}
);
unicode = 0026;
},
{
glyphname = degree;
lastChange = "2014-01-05 01:20:51 +0000";
layers = (
{
layerId = "940E2F63-624A-4C3D-A909-721782B4CF41";
name = Regular;
paths = (
{
closed = 1;
nodes = (
"1140 650 LINE",
"1140 220 LINE",
"710 220 LINE",
"710 200 LINE",
"1160 200 LINE",
"1160 650 LINE"
);
},
{
closed = 1;
nodes = (
"280 1080 LINE",
"280 630 LINE",
"730 630 LINE",
"730 1080 LINE"
);
},
{
closed = 1;
nodes = (
"710 650 LINE",
"300 650 LINE",
"300 1060 LINE",
"710 1060 LINE"
);
}
);
width = 1440;
}
);
unicode = 00B0;
},
